HIERARCHY
ROOT Hips
{
	OFFSET 0.000000 71.427986 0.000000
	CHANNELS 6 Xposition Yposition Zposition Xrotation Yrotation Zrotation
	JOINT Pelvis
	{
		OFFSET 0.000000 0.000000 0.000000
		CHANNELS 3 Xrotation Yrotation Zrotation
		JOINT LeftUpLeg
		{
			OFFSET 6.797100 -2.508499 -1.318700
			CHANNELS 3 Xrotation Yrotation Zrotation
			JOINT LeftLeg
			{
				OFFSET 0.069008 -29.241863 0.690200
				CHANNELS 3 Xrotation Yrotation Zrotation
				JOINT LeftFoot
				{
					OFFSET -0.069008 -29.568123 -0.266800
					CHANNELS 3 Xrotation Yrotation Zrotation
					JOINT LeftToeBase
					{
						OFFSET 3.145500 -8.631000 16.059900
						CHANNELS 3 Xrotation Yrotation Zrotation
						End Site
						{
							OFFSET 0.000000 18.501587 0.000000
						}
					}
				}
			}
			JOINT Left_ShortSleeve
			{
				OFFSET 0.265923 -10.480953 1.153800
				CHANNELS 3 Xrotation Yrotation Zrotation
				End Site
				{
					OFFSET 1.725763 19.823879 0.000000
				}
			}
		}
		JOINT RightUpLeg
		{
			OFFSET -6.797100 -2.508499 -1.318700
			CHANNELS 3 Xrotation Yrotation Zrotation
			JOINT RightLeg
			{
				OFFSET -0.082453 -29.241932 0.688000
				CHANNELS 3 Xrotation Yrotation Zrotation
				JOINT RightFoot
				{
					OFFSET 0.082453 -29.568058 -0.264600
					CHANNELS 3 Xrotation Yrotation Zrotation
					JOINT RightToeBase
					{
						OFFSET -3.115300 -8.682800 16.113400
						CHANNELS 3 Xrotation Yrotation Zrotation
						End Site
						{
							OFFSET 0.000000 18.567114 0.000000
						}
					}
				}
			}
			JOINT Right_ShortSleeve
			{
				OFFSET -0.265923 -10.480953 1.153800
				CHANNELS 3 Xrotation Yrotation Zrotation
				End Site
				{
					OFFSET -1.725766 19.823910 0.000000
				}
			}
		}
	}
	JOINT Spine
	{
		OFFSET 0.000000 13.368103 0.470500
		CHANNELS 3 Xrotation Yrotation Zrotation
		JOINT Spine1
		{
			OFFSET 0.147000 13.837402 0.538800
			CHANNELS 3 Xrotation Yrotation Zrotation
			JOINT Spine2
			{
				OFFSET 0.168000 16.242897 -1.435500
				CHANNELS 3 Xrotation Yrotation Zrotation
				JOINT Neck
				{
					OFFSET 0.217200 18.631500 -1.679100
					CHANNELS 3 Xrotation Yrotation Zrotation
					JOINT Head
					{
						OFFSET 0.000000 6.599396 1.385900
						CHANNELS 3 Xrotation Yrotation Zrotation
						JOINT Hat
						{
							OFFSET -0.532200 27.220596 -10.096100
							CHANNELS 3 Xrotation Yrotation Zrotation
							End Site
							{
								OFFSET 0.000000 22.029861 0.000000
							}
						}
						JOINT HairD
						{
							OFFSET -10.777400 17.437393 -1.325900
							CHANNELS 3 Xrotation Yrotation Zrotation
							JOINT HairD1
							{
								OFFSET -3.290299 -11.051193 1.062200
								CHANNELS 3 Xrotation Yrotation Zrotation
								End Site
								{
									OFFSET 0.000000 11.579437 0.000000
								}
							}
						}
						JOINT HairB
						{
							OFFSET -10.777400 17.437393 1.467900
							CHANNELS 3 Xrotation Yrotation Zrotation
							JOINT HairB1
							{
								OFFSET -1.561200 -12.956299 3.590200
								CHANNELS 3 Xrotation Yrotation Zrotation
								End Site
								{
									OFFSET 0.000000 13.534866 0.000000
								}
							}
						}
						JOINT HairA
						{
							OFFSET 9.713100 17.437393 1.467900
							CHANNELS 3 Xrotation Yrotation Zrotation
							JOINT HairA1
							{
								OFFSET 1.561200 -12.956299 3.590200
								CHANNELS 3 Xrotation Yrotation Zrotation
								End Site
								{
									OFFSET 0.000000 13.534866 0.000000
								}
							}
						}
						JOINT HairC
						{
							OFFSET 9.713100 17.437393 -1.325900
							CHANNELS 3 Xrotation Yrotation Zrotation
							JOINT HairC1
							{
								OFFSET 3.290300 -11.051193 1.062200
								CHANNELS 3 Xrotation Yrotation Zrotation
								End Site
								{
									OFFSET 0.000000 11.579437 0.000000
								}
							}
						}
					}
				}
				JOINT LeftShoulder
				{
					OFFSET 5.101800 15.108002 -2.763700
					CHANNELS 3 Xrotation Yrotation Zrotation
					JOINT LeftArm
					{
						OFFSET 9.825497 2.506317 -1.597400
						CHANNELS 3 Xrotation Yrotation Zrotation
						JOINT LeftForeArm
						{
							OFFSET 21.966244 0.000000 0.000000
							CHANNELS 3 Xrotation Yrotation Zrotation
							JOINT LeftHand
							{
								OFFSET 33.879036 0.000000 0.000000
								CHANNELS 3 Xrotation Yrotation Zrotation
								JOINT LeftHandThumb1
								{
									OFFSET 6.715286 -2.359680 3.363841
									CHANNELS 3 Xrotation Yrotation Zrotation
									JOINT LeftHandThumb2
									{
										OFFSET 2.507072 -1.447464 1.447461
										CHANNELS 3 Xrotation Yrotation Zrotation
										JOINT LeftHandThumb3
										{
											OFFSET 2.898338 -1.673355 1.673357
											CHANNELS 3 Xrotation Yrotation Zrotation
											End Site
											{
												OFFSET -0.295959 3.727692 -0.131651
											}
										}
									}
								}
								JOINT LeftHandIndex1
								{
									OFFSET 14.190811 -0.254547 3.840278
									CHANNELS 3 Xrotation Yrotation Zrotation
									JOINT LeftHandIndex2
									{
										OFFSET 3.551727 0.000000 -0.000000
										CHANNELS 3 Xrotation Yrotation Zrotation
										JOINT LeftHandIndex3
										{
											OFFSET 2.894196 0.000000 0.000000
											CHANNELS 3 Xrotation Yrotation Zrotation
											End Site
											{
												OFFSET -1.000603 2.690872 0.366626
											}
										}
									}
								}
								JOINT LeftHandMiddle1
								{
									OFFSET 13.776489 0.000000 0.000000
									CHANNELS 3 Xrotation Yrotation Zrotation
									JOINT LeftHandMiddle2
									{
										OFFSET 3.438232 0.000000 0.000000
										CHANNELS 3 Xrotation Yrotation Zrotation
										JOINT LeftHandMiddle3
										{
											OFFSET 3.691551 0.000000 0.000000
											CHANNELS 3 Xrotation Yrotation Zrotation
											End Site
											{
												OFFSET -1.082298 3.499527 0.457670
											}
										}
									}
								}
								JOINT LeftHandRing1
								{
									OFFSET 13.966164 -0.268127 -3.067488
									CHANNELS 3 Xrotation Yrotation Zrotation
									JOINT LeftHandRing2
									{
										OFFSET 3.162567 0.000000 0.000000
										CHANNELS 3 Xrotation Yrotation Zrotation
										JOINT LeftHandRing3
										{
											OFFSET 3.324348 0.000000 0.000000
											CHANNELS 3 Xrotation Yrotation Zrotation
											End Site
											{
												OFFSET -0.861900 3.184998 0.405154
											}
										}
									}
								}
								JOINT LeftHandPinky1
								{
									OFFSET 13.131393 -0.168503 -5.746925
									CHANNELS 3 Xrotation Yrotation Zrotation
									JOINT LeftHandPinky2
									{
										OFFSET 2.849182 0.000000 0.000000
										CHANNELS 3 Xrotation Yrotation Zrotation
										JOINT LeftHandPinky3
										{
											OFFSET 2.805038 0.000000 0.000000
											CHANNELS 3 Xrotation Yrotation Zrotation
											End Site
											{
												OFFSET -0.882500 2.642609 0.325652
											}
										}
									}
								}
							}
							JOINT Left_Sleeve
							{
								OFFSET 6.592125 -0.646545 0.805568
								CHANNELS 3 Xrotation Yrotation Zrotation
								End Site
								{
									OFFSET -0.000179 20.275787 -0.000000
								}
							}
						}
					}
				}
				JOINT RightShoulder
				{
					OFFSET -5.731700 15.108002 -2.763700
					CHANNELS 3 Xrotation Yrotation Zrotation
					JOINT RightArm
					{
						OFFSET -9.825497 2.506317 -1.597400
						CHANNELS 3 Xrotation Yrotation Zrotation
						JOINT RightForeArm
						{
							OFFSET -21.966242 0.000000 0.000000
							CHANNELS 3 Xrotation Yrotation Zrotation
							JOINT RightHand
							{
								OFFSET -33.879032 0.000000 0.000000
								CHANNELS 3 Xrotation Yrotation Zrotation
								JOINT RightHandThumb1
								{
									OFFSET -6.715286 -2.359680 3.363841
									CHANNELS 3 Xrotation Yrotation Zrotation
									JOINT RightHandThumb2
									{
										OFFSET -2.507072 -1.447464 1.447461
										CHANNELS 3 Xrotation Yrotation Zrotation
										JOINT RightHandThumb3
										{
											OFFSET -2.898338 -1.673355 1.673357
											CHANNELS 3 Xrotation Yrotation Zrotation
											End Site
											{
												OFFSET 0.295959 3.727692 -0.131651
											}
										}
									}
								}
								JOINT RightHandIndex1
								{
									OFFSET -14.190811 -0.254547 3.840278
									CHANNELS 3 Xrotation Yrotation Zrotation
									JOINT RightHandIndex2
									{
										OFFSET -3.551727 0.000000 -0.000000
										CHANNELS 3 Xrotation Yrotation Zrotation
										JOINT RightHandIndex3
										{
											OFFSET -2.894196 0.000000 0.000000
											CHANNELS 3 Xrotation Yrotation Zrotation
											End Site
											{
												OFFSET 1.000603 2.690872 0.366626
											}
										}
									}
								}
								JOINT RightHandMiddle1
								{
									OFFSET -13.776489 0.000000 0.000000
									CHANNELS 3 Xrotation Yrotation Zrotation
									JOINT RightHandMiddle2
									{
										OFFSET -3.438232 0.000000 0.000000
										CHANNELS 3 Xrotation Yrotation Zrotation
										JOINT RightHandMiddle3
										{
											OFFSET -3.691551 0.000000 0.000000
											CHANNELS 3 Xrotation Yrotation Zrotation
											End Site
											{
												OFFSET 1.082298 3.499527 0.457670
											}
										}
									}
								}
								JOINT RightHandRing1
								{
									OFFSET -13.966164 -0.268127 -3.067488
									CHANNELS 3 Xrotation Yrotation Zrotation
									JOINT RightHandRing2
									{
										OFFSET -3.162567 0.000000 0.000000
										CHANNELS 3 Xrotation Yrotation Zrotation
										JOINT RightHandRing3
										{
											OFFSET -3.324348 0.000000 0.000000
											CHANNELS 3 Xrotation Yrotation Zrotation
											End Site
											{
												OFFSET 0.861900 3.184998 0.405154
											}
										}
									}
								}
								JOINT RightHandPinky1
								{
									OFFSET -13.131393 -0.168503 -5.746925
									CHANNELS 3 Xrotation Yrotation Zrotation
									JOINT RightHandPinky2
									{
										OFFSET -2.849182 0.000000 0.000000
										CHANNELS 3 Xrotation Yrotation Zrotation
										JOINT RightHandPinky3
										{
											OFFSET -2.805038 0.000000 0.000000
											CHANNELS 3 Xrotation Yrotation Zrotation
											End Site
											{
												OFFSET 0.882500 2.642609 0.325652
											}
										}
									}
								}
							}
							JOINT Right_Sleeve
							{
								OFFSET -6.592125 -0.646545 0.805568
								CHANNELS 3 Xrotation Yrotation Zrotation
								End Site
								{
									OFFSET 0.000179 20.275787 -0.000000
								}
							}
						}
					}
				}
				JOINT Bind_Right_JacketString
				{
					OFFSET -3.534800 11.969597 7.200700
					CHANNELS 3 Xrotation Yrotation Zrotation
					JOINT Bind_Right_JacketString1
					{
						OFFSET -0.319900 -6.102600 2.794100
						CHANNELS 3 Xrotation Yrotation Zrotation
						End Site
						{
							OFFSET 0.000000 6.719452 0.000000
						}
					}
				}
				JOINT Bind_Left_JacketString
				{
					OFFSET 2.904800 11.969597 7.200700
					CHANNELS 3 Xrotation Yrotation Zrotation
					JOINT Bind_Left_JacketString1
					{
						OFFSET 0.364800 -5.904503 3.186800
						CHANNELS 3 Xrotation Yrotation Zrotation
						End Site
						{
							OFFSET 0.000000 6.719513 0.000000
						}
					}
				}
				JOINT HairE
				{
					OFFSET 5.915200 17.612701 -11.592200
					CHANNELS 3 Xrotation Yrotation Zrotation
					JOINT HairE1
					{
						OFFSET 0.289200 -7.171898 -1.284500
						CHANNELS 3 Xrotation Yrotation Zrotation
						End Site
						{
							OFFSET 0.000000 7.291756 0.000000
						}
					}
				}
				JOINT HairF
				{
					OFFSET -0.864800 17.612701 -11.592200
					CHANNELS 3 Xrotation Yrotation Zrotation
					JOINT HairF1
					{
						OFFSET 0.000000 -14.087097 -2.127501
						CHANNELS 3 Xrotation Yrotation Zrotation
						End Site
						{
							OFFSET 0.000000 14.246841 0.000000
						}
					}
				}
				JOINT HairG
				{
					OFFSET -8.087700 17.612701 -11.592200
					CHANNELS 3 Xrotation Yrotation Zrotation
					JOINT HairG1
					{
						OFFSET -0.293600 -6.081398 -0.910100
						CHANNELS 3 Xrotation Yrotation Zrotation
						End Site
						{
							OFFSET 0.000000 6.156120 0.000000
						}
					}
				}
			}
		}
	}
	JOINT Pouch
	{
		OFFSET 0.000000 4.394501 10.847300
		CHANNELS 3 Xrotation Yrotation Zrotation
		End Site
		{
			OFFSET 0.000000 21.880577 0.000000
		}
	}
	JOINT Bag
	{
		OFFSET -13.229000 4.813004 -0.593300
		CHANNELS 3 Xrotation Yrotation Zrotation
		End Site
		{
			OFFSET 0.000000 21.880577 0.000000
		}
	}
	JOINT OccupyGuyFacialAnim_Joint
	{
		OFFSET 1.000000 -70.206398 -1.655000
		CHANNELS 3 Xrotation Yrotation Zrotation
		End Site
		{
			OFFSET 0.000000 21.880577 0.000000
		}
	}
}
MOTION
Frames: 4
Frame Time: 0.016667
-0.709901 67.152405 31.628347 10.279970 -5.197451 0.047136 -0.000001 -0.000000 -0.000000 -29.045516 6.775338 14.043469 36.110360 8.594522 0.409574 -16.383271 -3.418364 -12.953711 -0.000000 -0.000000 -0.000000 -0.000000 0.000000 -0.000000 -32.880650 -3.153928 -4.878764 38.152955 1.243008 -4.303537 -14.436662 -11.987355 8.598552 0.000000 0.000001 -0.000000 0.000000 0.000001 -0.000000 5.319804 0.151919 -1.191047 2.188033 -0.566219 -0.158979 0.272736 -0.972616 0.898067 12.585923 -0.308784 2.188553 -30.323021 0.842206 -5.312840 -0.000000 0.000001 -0.000000 -0.000000 0.000001 -0.000000 -0.000000 0.000001 -0.000001 -0.000000 0.000001 -0.000000 0.000000 0.000001 -0.000000 -0.000000 0.000001 -0.000000 0.000000 0.000001 -0.000000 -0.000000 0.000001 -0.000000 -0.000000 0.000001 -0.000000 5.876925 -7.979693 20.002223 -34.254679 -16.965579 -14.997629 0.000001 -124.447536 0.000001 -1.398398 -13.673595 39.579519 28.620038 -24.676638 7.683746 13.196511 30.099370 -41.312054 0.000002 -0.000000 0.000003 3.052572 -0.236008 -15.996347 0.004180 0.221373 -2.160725 0.000001 0.000000 -0.000002 0.872757 5.500594 -21.877311 0.087925 1.012248 -9.928492 -0.000000 -0.000000 -0.000001 1.472004 7.478229 -18.525761 0.300205 1.853022 -18.403443 -0.000001 -0.000000 0.000002 -1.697504 15.557752 -19.134809 0.370821 2.052995 -20.475343 0.000000 -0.000001 0.000003 0.000001 -0.000000 0.000000 -1.569642 -8.377662 -14.965265 -29.516126 36.059922 26.253335 -0.000001 121.356397 -0.000001 1.490558 12.183658 -43.921193 27.217090 26.328154 -7.221389 12.620655 -31.646394 39.727730 0.000001 0.000004 0.000002 3.344720 0.259447 17.143667 0.003483 -0.180150 2.211969 -0.000003 0.000001 -0.000001 0.921707 -5.175107 25.205478 0.070802 -0.809845 9.992547 0.000001 0.000000 0.000001 1.333965 -6.500113 20.818248 0.269516 -1.562851 19.567771 -0.000001 -0.000001 0.000001 -2.139000 -15.198738 21.741679 0.300657 -1.647802 20.679354 0.000001 0.000003 0.000001 -0.000000 0.000001 -0.000000 0.000001 0.000000 -0.000000 0.000002 0.000000 0.000000 0.000001 0.000000 -0.000000 0.000001 0.000000 -0.000000 0.000001 0.000000 -0.000000 0.000002 0.000000 0.000000 0.000001 0.000000 -0.000000 0.000001 0.000000 -0.000000 0.000001 0.000000 -0.000000 0.000002 0.000000 0.000000 -0.000001 -0.000000 -0.000000 -0.000001 -0.000000 -0.000000 -0.000001 -0.000000 -0.000000 
-0.745324 67.624733 31.923996 10.556046 -5.018241 0.046795 0.000000 0.000000 -0.000000 -27.602113 7.161131 13.792192 33.111053 8.594359 0.405784 -15.176800 -3.606500 -12.762381 0.000000 0.000001 0.000000 -0.000001 -0.000000 -0.000000 -31.430884 -3.268379 -4.775938 35.436131 1.030375 -4.287309 -13.424679 -11.920443 8.668675 -0.000000 0.000001 0.000000 -0.000001 -0.000001 -0.000000 5.189594 0.147095 -1.169228 1.911444 -0.569145 -0.186931 -0.161185 -0.970425 0.868122 12.453098 -0.296591 2.274849 -29.759937 0.843140 -5.284013 0.000000 0.000000 0.000000 0.000000 0.000000 0.000000 0.000000 0.000000 0.000000 0.000000 0.000000 0.000000 0.000000 0.000000 -0.000000 0.000000 0.000000 0.000000 0.000000 0.000000 -0.000000 0.000000 0.000000 0.000000 0.000000 0.000000 0.000000 5.875351 -8.055283 20.055969 -34.142572 -16.790056 -15.375131 0.000002 -124.460076 -0.000000 -2.606254 -13.888119 39.182531 28.761493 -24.766903 7.719528 13.199938 30.105145 -41.441234 0.000004 0.000002 0.000003 3.069570 -0.215141 -16.039880 0.003670 0.207617 -2.026405 0.000000 -0.000001 -0.000000 0.875036 5.503081 -21.943385 0.082607 0.981389 -9.622843 0.000000 0.000001 -0.000001 1.474911 7.486880 -18.524909 0.296680 1.842400 -18.294119 -0.000000 0.000000 0.000002 -1.764787 15.538909 -19.028354 0.367413 2.043842 -20.379906 0.000001 -0.000002 0.000001 0.000001 0.000000 0.000000 -1.577470 -8.399916 -14.977690 -29.040800 36.106340 26.125861 -0.000000 121.325565 -0.000002 0.621398 13.275598 -43.722449 27.195573 26.336433 -7.211344 12.611110 -31.646592 39.702404 0.000001 -0.000003 0.000001 3.355504 0.248054 17.203474 0.003503 -0.180911 2.221358 -0.000002 0.000000 0.000002 0.928099 -5.183139 25.338448 0.071177 -0.811963 10.018990 0.000001 0.000001 0.000003 1.330938 -6.479215 20.917190 0.270808 -1.566477 19.615176 0.000002 -0.000002 0.000002 -2.120912 -15.198086 21.855222 0.301312 -1.649547 20.702206 -0.000000 -0.000001 0.000002 -0.000000 0.000002 -0.000000 -0.000001 -0.000000 0.000000 0.000000 -0.000001 0.000000 -0.000001 -0.000000 0.000000 -0.000001 -0.000000 0.000000 -0.000001 -0.000000 0.000000 0.000000 -0.000001 0.000000 -0.000001 -0.000000 0.000000 -0.000001 -0.000000 0.000000 -0.000001 -0.000000 0.000000 0.000000 -0.000001 0.000000 0.000000 0.000000 -0.000000 0.000000 0.000000 -0.000000 0.000000 0.000000 -0.000000 
-0.778867 68.043633 32.184246 10.795030 -4.827921 0.038767 0.000001 -0.000000 0.000000 -26.211665 7.520959 13.550938 30.212748 8.593572 0.402044 -13.978858 -3.808465 -12.577905 0.000000 0.000001 0.000000 -0.000000 0.000000 -0.000000 -30.049581 -3.374918 -4.674887 32.847087 0.808941 -4.271846 -12.435573 -11.853278 8.729174 -0.000000 0.000000 -0.000000 -0.000000 0.000002 0.000000 5.077539 0.143550 -1.141877 1.666089 -0.571977 -0.208915 -0.559323 -0.968293 0.843850 12.301277 -0.295255 2.357713 -29.149557 0.800223 -5.276036 -0.000000 -0.000000 -0.000000 -0.000000 -0.000000 -0.000000 -0.000000 -0.000000 -0.000000 -0.000000 -0.000000 0.000000 -0.000000 0.000000 0.000000 -0.000000 -0.000000 0.000000 -0.000000 0.000000 0.000000 -0.000000 -0.000000 -0.000000 -0.000000 -0.000000 -0.000000 5.878852 -8.060530 20.101151 -33.982227 -16.856634 -15.686663 0.000001 -124.387594 0.000000 -3.851816 -13.938194 39.134057 28.792642 -24.793616 7.783947 13.167965 30.092970 -41.468913 -0.000003 0.000003 0.000002 3.081261 -0.191197 -16.120754 0.003523 0.203394 -1.985198 0.000002 0.000000 0.000005 0.878236 5.506983 -22.027379 0.078933 0.959449 -9.405680 0.000000 0.000000 -0.000003 1.484617 7.508868 -18.559314 0.295690 1.839408 -18.263369 -0.000002 0.000001 0.000000 -1.807170 15.526704 -18.984873 0.366253 2.040717 -20.347374 -0.000000 -0.000001 0.000001 0.000001 0.000001 0.000000 -1.587336 -8.450118 -14.986753 -28.633703 36.187732 26.024551 0.000002 121.147202 0.000000 -0.032552 14.261425 -43.465306 27.172999 26.344555 -7.200395 12.601740 -31.646923 39.677108 -0.000001 -0.000001 -0.000001 3.366423 0.236500 17.265622 0.003551 -0.182015 2.234957 0.000001 0.000002 0.000001 0.934622 -5.191300 25.473979 0.071597 -0.814354 10.048946 0.000001 -0.000002 0.000001 1.327872 -6.458142 21.018510 0.272227 -1.570454 19.666999 -0.000001 -0.000002 -0.000001 -2.102263 -15.197536 21.971412 0.302125 -1.651690 20.730416 -0.000000 0.000001 0.000001 0.000000 -0.000000 -0.000000 0.000001 0.000001 -0.000000 0.000001 0.000001 -0.000000 0.000001 0.000001 -0.000000 0.000001 0.000001 -0.000000 0.000001 0.000001 -0.000000 0.000001 0.000001 -0.000000 0.000001 0.000001 -0.000000 0.000001 0.000001 -0.000000 0.000001 0.000001 -0.000000 0.000001 0.000001 -0.000000 0.000001 -0.000000 0.000000 0.000001 -0.000000 0.000000 0.000001 -0.000000 0.000000 
-0.809039 68.404007 32.405640 10.969577 -4.639039 0.029653 0.000000 0.000001 -0.000000 -24.880847 7.855681 13.320162 27.489459 8.591108 0.398339 -12.826884 -4.013576 -12.404069 -0.000000 -0.000000 -0.000000 -0.000001 -0.000000 -0.000000 -28.753450 -3.474910 -4.587748 30.464204 0.599859 -4.257122 -11.506190 -11.788298 8.776223 -0.000000 0.000001 0.000000 -0.000001 0.000000 -0.000000 4.985351 0.140848 -1.110314 1.454996 -0.575850 -0.227307 -0.918377 -0.967313 0.822786 12.149642 -0.303946 2.434266 -28.491239 0.716112 -5.283606 0.000000 -0.000000 -0.000000 0.000000 -0.000000 -0.000000 0.000000 -0.000000 -0.000000 0.000000 -0.000000 -0.000000 0.000000 -0.000000 -0.000000 0.000000 -0.000000 -0.000000 0.000000 -0.000000 -0.000000 0.000000 -0.000000 -0.000000 0.000000 -0.000000 -0.000000 5.881367 -7.946040 20.121310 -33.764391 -17.243374 -15.928119 0.000003 -124.230896 -0.000001 -5.100333 -13.844759 39.465659 28.513009 -24.637852 7.851868 13.061382 30.072705 -41.232698 -0.000001 -0.000000 0.000000 3.077367 -0.164135 -16.281197 0.004287 0.224187 -2.188239 -0.000000 0.000000 -0.000002 0.883465 5.514453 -22.140958 0.079769 0.964480 -9.455464 0.000001 0.000001 -0.000001 1.509851 7.560492 -18.676273 0.301349 1.856464 -18.438883 0.000000 0.000001 0.000001 -1.778063 15.533308 -19.108679 0.371054 2.053603 -20.481729 0.000000 0.000000 0.000001 -0.000001 -0.000001 -0.000000 -1.601074 -8.534190 -15.002517 -28.345516 36.296868 26.002359 0.000004 120.828860 -0.000005 -0.558089 15.208087 -43.049060 27.151435 26.352560 -7.190641 12.592163 -31.647087 39.651782 -0.000001 0.000001 0.000003 3.377260 0.225127 17.325642 0.003581 -0.182834 2.244892 -0.000001 0.000002 0.000001 0.941035 -5.199283 25.607129 0.071984 -0.816523 10.075867 -0.000000 -0.000001 -0.000004 1.324659 -6.437248 21.117611 0.273544 -1.574127 19.714962 0.000001 0.000000 -0.000000 -2.084217 -15.196768 22.085102 0.302801 -1.653476 20.753798 -0.000000 0.000002 -0.000003 -0.000000 0.000001 0.000000 -0.000000 -0.000000 0.000000 -0.000000 -0.000000 0.000000 -0.000000 -0.000000 -0.000000 -0.000000 -0.000000 -0.000000 -0.000000 -0.000000 0.000000 -0.000000 -0.000000 0.000000 -0.000000 -0.000000 -0.000000 -0.000000 -0.000000 -0.000000 -0.000000 -0.000000 0.000000 -0.000000 -0.000000 0.000000 0.000000 0.000001 -0.000000 0.000000 0.000001 -0.000000 0.000000 0.000001 -0.000000 
